<mxfile host="app.diagrams.net" agent="Mozilla/5.0 (Windows NT 10.0; Win64; x64) AppleWebKit/537.36 (KHTML, like Gecko) Chrome/128.0.0.0 Safari/537.36 Edg/128.0.0.0" version="24.7.12">
  <diagram name="Page-1" id="S4Qsapw57uPhdEScr6_6">
    <mxGraphModel dx="1666" dy="749" grid="1" gridSize="10" guides="1" tooltips="1" connect="1" arrows="1" fold="1" page="1" pageScale="1" pageWidth="850" pageHeight="1100" math="0" shadow="0">
      <root>
        <mxCell id="0" />
        <mxCell id="1" parent="0" />
        <mxCell id="3MBttBxStycFvoHLmayV-1" value="sa_mesh_run_within_grid.f90" style="rounded=0;whiteSpace=wrap;html=1;" parent="1" vertex="1">
          <mxGeometry x="343" y="30" width="165" height="40" as="geometry" />
        </mxCell>
        <mxCell id="M-iVwE_etAoXfPvwNGPy-4" style="edgeStyle=orthogonalEdgeStyle;rounded=0;orthogonalLoop=1;jettySize=auto;html=1;entryX=0.5;entryY=0;entryDx=0;entryDy=0;" edge="1" parent="1" source="3MBttBxStycFvoHLmayV-3" target="M-iVwE_etAoXfPvwNGPy-3">
          <mxGeometry relative="1" as="geometry" />
        </mxCell>
        <mxCell id="3MBttBxStycFvoHLmayV-3" value="run_within_grid_init" style="rounded=1;whiteSpace=wrap;html=1;" parent="1" vertex="1">
          <mxGeometry x="153.62" y="90" width="120" height="60" as="geometry" />
        </mxCell>
        <mxCell id="M-iVwE_etAoXfPvwNGPy-10" style="edgeStyle=orthogonalEdgeStyle;rounded=0;orthogonalLoop=1;jettySize=auto;html=1;entryX=0.5;entryY=0;entryDx=0;entryDy=0;" edge="1" parent="1" source="3MBttBxStycFvoHLmayV-12" target="M-iVwE_etAoXfPvwNGPy-9">
          <mxGeometry relative="1" as="geometry" />
        </mxCell>
        <mxCell id="3MBttBxStycFvoHLmayV-12" value="run_within_grid" style="rounded=1;whiteSpace=wrap;html=1;" parent="1" vertex="1">
          <mxGeometry x="520" y="90" width="120" height="60" as="geometry" />
        </mxCell>
        <mxCell id="3MBttBxStycFvoHLmayV-23" value="" style="edgeStyle=orthogonalEdgeStyle;rounded=0;orthogonalLoop=1;jettySize=auto;html=1;" parent="1" source="3MBttBxStycFvoHLmayV-21" target="3MBttBxStycFvoHLmayV-22" edge="1">
          <mxGeometry relative="1" as="geometry" />
        </mxCell>
        <mxCell id="3MBttBxStycFvoHLmayV-21" value="&lt;div style=&quot;&quot;&gt;&lt;div style=&quot;text-align: center;&quot;&gt;&amp;nbsp; run_within_grid_stas_update&amp;nbsp;(fls, shd, cm)&lt;br&gt;&lt;/div&gt;&lt;/div&gt;" style="whiteSpace=wrap;html=1;rounded=1;align=left;" parent="1" vertex="1">
          <mxGeometry x="486.56" y="340" width="195" height="70" as="geometry" />
        </mxCell>
        <mxCell id="3MBttBxStycFvoHLmayV-25" value="" style="edgeStyle=orthogonalEdgeStyle;rounded=0;orthogonalLoop=1;jettySize=auto;html=1;" parent="1" source="3MBttBxStycFvoHLmayV-22" edge="1">
          <mxGeometry relative="1" as="geometry">
            <mxPoint x="584" y="530" as="targetPoint" />
          </mxGeometry>
        </mxCell>
        <mxCell id="3MBttBxStycFvoHLmayV-22" value="&lt;div style=&quot;text-align: center;&quot;&gt;&lt;span style=&quot;background-color: initial;&quot;&gt;&amp;nbsp; &amp;nbsp; &amp;nbsp;Call process:&lt;/span&gt;&lt;/div&gt;&lt;div style=&quot;text-align: center;&quot;&gt;&amp;nbsp; &amp;nbsp; &amp;nbsp;bflm_within_grid&amp;nbsp;(fls, shd, cm)&lt;br&gt;&lt;/div&gt;" style="whiteSpace=wrap;html=1;align=left;rounded=1;" parent="1" vertex="1">
          <mxGeometry x="494.06" y="440" width="180" height="50" as="geometry" />
        </mxCell>
        <mxCell id="M-iVwE_etAoXfPvwNGPy-36" style="edgeStyle=orthogonalEdgeStyle;rounded=0;orthogonalLoop=1;jettySize=auto;html=1;entryX=0.5;entryY=0;entryDx=0;entryDy=0;" edge="1" parent="1" source="3MBttBxStycFvoHLmayV-5" target="M-iVwE_etAoXfPvwNGPy-35">
          <mxGeometry relative="1" as="geometry" />
        </mxCell>
        <mxCell id="3MBttBxStycFvoHLmayV-5" value="&lt;div style=&quot;&quot;&gt;&lt;div style=&quot;text-align: center;&quot;&gt;&amp;nbsp; run_within_grid_stas_update&amp;nbsp;(fls, shd, cm)&lt;br&gt;&lt;/div&gt;&lt;/div&gt;" style="whiteSpace=wrap;html=1;rounded=1;align=left;" parent="1" vertex="1">
          <mxGeometry x="92.58000000000001" y="360" width="242.07" height="40" as="geometry" />
        </mxCell>
        <mxCell id="M-iVwE_etAoXfPvwNGPy-39" style="edgeStyle=orthogonalEdgeStyle;rounded=0;orthogonalLoop=1;jettySize=auto;html=1;" edge="1" parent="1" source="3MBttBxStycFvoHLmayV-19" target="M-iVwE_etAoXfPvwNGPy-38">
          <mxGeometry relative="1" as="geometry" />
        </mxCell>
        <mxCell id="3MBttBxStycFvoHLmayV-19" value="run_within_grid_stas_update" style="rounded=1;whiteSpace=wrap;html=1;" parent="1" vertex="1">
          <mxGeometry x="131.52" y="570" width="179.5" height="60" as="geometry" />
        </mxCell>
        <mxCell id="3MBttBxStycFvoHLmayV-27" value="" style="edgeStyle=orthogonalEdgeStyle;rounded=0;orthogonalLoop=1;jettySize=auto;html=1;" parent="1" source="3MBttBxStycFvoHLmayV-20" target="3MBttBxStycFvoHLmayV-26" edge="1">
          <mxGeometry relative="1" as="geometry" />
        </mxCell>
        <mxCell id="3MBttBxStycFvoHLmayV-20" value="Initializes grid variables to 0.0" style="whiteSpace=wrap;html=1;rounded=1;" parent="1" vertex="1">
          <mxGeometry x="127.82000000000001" y="830" width="190" height="50" as="geometry" />
        </mxCell>
        <mxCell id="3MBttBxStycFvoHLmayV-29" value="" style="edgeStyle=orthogonalEdgeStyle;rounded=0;orthogonalLoop=1;jettySize=auto;html=1;" parent="1" source="3MBttBxStycFvoHLmayV-26" target="3MBttBxStycFvoHLmayV-28" edge="1">
          <mxGeometry relative="1" as="geometry" />
        </mxCell>
        <mxCell id="3MBttBxStycFvoHLmayV-26" value="Updates the grid variable by adding the product of the tile variable value and a fraction derived from ACLASS variable" style="whiteSpace=wrap;html=1;rounded=1;" parent="1" vertex="1">
          <mxGeometry x="131.5" y="910" width="182.62" height="70" as="geometry" />
        </mxCell>
        <mxCell id="M-iVwE_etAoXfPvwNGPy-43" style="edgeStyle=orthogonalEdgeStyle;rounded=0;orthogonalLoop=1;jettySize=auto;html=1;entryX=0.5;entryY=0;entryDx=0;entryDy=0;" edge="1" parent="1" source="3MBttBxStycFvoHLmayV-28" target="M-iVwE_etAoXfPvwNGPy-42">
          <mxGeometry relative="1" as="geometry" />
        </mxCell>
        <mxCell id="3MBttBxStycFvoHLmayV-28" value="Variables&amp;nbsp;cmas, tcan, gro, tsno, rhosno, tpnd, tice are normalized by fractional coverage arrays" style="whiteSpace=wrap;html=1;rounded=1;" parent="1" vertex="1">
          <mxGeometry x="116.25000000000001" y="1005" width="226.75" height="95" as="geometry" />
        </mxCell>
        <mxCell id="M-iVwE_etAoXfPvwNGPy-6" style="edgeStyle=orthogonalEdgeStyle;rounded=0;orthogonalLoop=1;jettySize=auto;html=1;exitX=0.5;exitY=1;exitDx=0;exitDy=0;entryX=0.5;entryY=0;entryDx=0;entryDy=0;" edge="1" parent="1" source="M-iVwE_etAoXfPvwNGPy-1" target="3MBttBxStycFvoHLmayV-5">
          <mxGeometry relative="1" as="geometry" />
        </mxCell>
        <mxCell id="M-iVwE_etAoXfPvwNGPy-1" value="&lt;div&gt;ro%RUNTILE == True&lt;/div&gt;" style="rhombus;whiteSpace=wrap;html=1;rounded=1;fillColor=#F19C99;" vertex="1" parent="1">
          <mxGeometry x="120.17" y="260" width="186.89" height="60" as="geometry" />
        </mxCell>
        <mxCell id="M-iVwE_etAoXfPvwNGPy-5" style="edgeStyle=orthogonalEdgeStyle;rounded=0;orthogonalLoop=1;jettySize=auto;html=1;" edge="1" parent="1" source="M-iVwE_etAoXfPvwNGPy-3" target="M-iVwE_etAoXfPvwNGPy-1">
          <mxGeometry relative="1" as="geometry" />
        </mxCell>
        <mxCell id="M-iVwE_etAoXfPvwNGPy-3" value="Initialize variables and parameters e.g. fls, shd,&amp;nbsp;cm, etc." style="rounded=1;whiteSpace=wrap;html=1;" vertex="1" parent="1">
          <mxGeometry x="146.5621052631579" y="179.99898203592812" width="134.10526315789477" height="56.40718562874251" as="geometry" />
        </mxCell>
        <mxCell id="M-iVwE_etAoXfPvwNGPy-12" style="edgeStyle=orthogonalEdgeStyle;rounded=0;orthogonalLoop=1;jettySize=auto;html=1;entryX=0.5;entryY=0;entryDx=0;entryDy=0;" edge="1" parent="1" source="M-iVwE_etAoXfPvwNGPy-8" target="3MBttBxStycFvoHLmayV-21">
          <mxGeometry relative="1" as="geometry" />
        </mxCell>
        <mxCell id="M-iVwE_etAoXfPvwNGPy-8" value="&lt;div&gt;ro%RUNTILE == True&lt;/div&gt;" style="rhombus;whiteSpace=wrap;html=1;rounded=1;fillColor=#F19C99;" vertex="1" parent="1">
          <mxGeometry x="486.56" y="260" width="186.89" height="60" as="geometry" />
        </mxCell>
        <mxCell id="M-iVwE_etAoXfPvwNGPy-11" style="edgeStyle=orthogonalEdgeStyle;rounded=0;orthogonalLoop=1;jettySize=auto;html=1;entryX=0.5;entryY=0;entryDx=0;entryDy=0;" edge="1" parent="1" source="M-iVwE_etAoXfPvwNGPy-9" target="M-iVwE_etAoXfPvwNGPy-8">
          <mxGeometry relative="1" as="geometry" />
        </mxCell>
        <mxCell id="M-iVwE_etAoXfPvwNGPy-9" value="Initialize variables and parameters e.g. fls, shd,&amp;nbsp;cm, etc." style="rounded=1;whiteSpace=wrap;html=1;" vertex="1" parent="1">
          <mxGeometry x="512.9521052631578" y="179.99898203592812" width="134.10526315789477" height="56.40718562874251" as="geometry" />
        </mxCell>
        <mxCell id="M-iVwE_etAoXfPvwNGPy-34" value="end subroutine" style="whiteSpace=wrap;html=1;rounded=1;" vertex="1" parent="1">
          <mxGeometry x="527.06" y="530" width="120" height="60" as="geometry" />
        </mxCell>
        <mxCell id="M-iVwE_etAoXfPvwNGPy-35" value="end subroutine" style="whiteSpace=wrap;html=1;rounded=1;" vertex="1" parent="1">
          <mxGeometry x="153.61999999999995" y="435" width="120" height="60" as="geometry" />
        </mxCell>
        <mxCell id="M-iVwE_etAoXfPvwNGPy-41" style="edgeStyle=orthogonalEdgeStyle;rounded=0;orthogonalLoop=1;jettySize=auto;html=1;" edge="1" parent="1" source="M-iVwE_etAoXfPvwNGPy-37" target="3MBttBxStycFvoHLmayV-20">
          <mxGeometry relative="1" as="geometry" />
        </mxCell>
        <mxCell id="M-iVwE_etAoXfPvwNGPy-37" value="&lt;div&gt;ro%RUNTILE == True&lt;/div&gt;" style="rhombus;whiteSpace=wrap;html=1;rounded=1;fillColor=#F19C99;" vertex="1" parent="1">
          <mxGeometry x="127.82" y="740" width="186.89" height="60" as="geometry" />
        </mxCell>
        <mxCell id="M-iVwE_etAoXfPvwNGPy-40" style="edgeStyle=orthogonalEdgeStyle;rounded=0;orthogonalLoop=1;jettySize=auto;html=1;" edge="1" parent="1" source="M-iVwE_etAoXfPvwNGPy-38" target="M-iVwE_etAoXfPvwNGPy-37">
          <mxGeometry relative="1" as="geometry" />
        </mxCell>
        <mxCell id="M-iVwE_etAoXfPvwNGPy-38" value="Initialize variables and parameters e.g. fls, shd,&amp;nbsp;cm, etc." style="rounded=1;whiteSpace=wrap;html=1;" vertex="1" parent="1">
          <mxGeometry x="154.2121052631578" y="659.9989820359281" width="134.10526315789477" height="56.40718562874251" as="geometry" />
        </mxCell>
        <mxCell id="M-iVwE_etAoXfPvwNGPy-42" value="end subroutine" style="whiteSpace=wrap;html=1;rounded=1;" vertex="1" parent="1">
          <mxGeometry x="169.61999999999995" y="1140" width="120" height="60" as="geometry" />
        </mxCell>
        <mxCell id="M-iVwE_etAoXfPvwNGPy-44" value="" style="group" vertex="1" connectable="0" parent="1">
          <mxGeometry x="520" y="680" width="190" height="438" as="geometry" />
        </mxCell>
        <mxCell id="M-iVwE_etAoXfPvwNGPy-45" value="" style="edgeStyle=orthogonalEdgeStyle;rounded=0;orthogonalLoop=1;jettySize=auto;html=1;" edge="1" parent="M-iVwE_etAoXfPvwNGPy-44" source="M-iVwE_etAoXfPvwNGPy-46" target="M-iVwE_etAoXfPvwNGPy-51">
          <mxGeometry relative="1" as="geometry">
            <mxPoint x="83.25" y="92" as="targetPoint" />
          </mxGeometry>
        </mxCell>
        <mxCell id="M-iVwE_etAoXfPvwNGPy-46" value="run_within_grid_finalize" style="rounded=1;whiteSpace=wrap;html=1;" vertex="1" parent="M-iVwE_etAoXfPvwNGPy-44">
          <mxGeometry x="5.25" width="158" height="60" as="geometry" />
        </mxCell>
        <mxCell id="M-iVwE_etAoXfPvwNGPy-47" value="" style="edgeStyle=orthogonalEdgeStyle;rounded=0;orthogonalLoop=1;jettySize=auto;html=1;" edge="1" parent="M-iVwE_etAoXfPvwNGPy-44" target="M-iVwE_etAoXfPvwNGPy-49">
          <mxGeometry relative="1" as="geometry">
            <mxPoint x="75.69999999999982" y="350" as="sourcePoint" />
          </mxGeometry>
        </mxCell>
        <mxCell id="M-iVwE_etAoXfPvwNGPy-49" value="end subroutine" style="whiteSpace=wrap;html=1;rounded=1;" vertex="1" parent="M-iVwE_etAoXfPvwNGPy-44">
          <mxGeometry x="31.809999999999995" y="280" width="120" height="60" as="geometry" />
        </mxCell>
        <mxCell id="M-iVwE_etAoXfPvwNGPy-50" style="edgeStyle=orthogonalEdgeStyle;rounded=0;orthogonalLoop=1;jettySize=auto;html=1;entryX=0.5;entryY=0;entryDx=0;entryDy=0;" edge="1" parent="M-iVwE_etAoXfPvwNGPy-44" source="M-iVwE_etAoXfPvwNGPy-51" target="M-iVwE_etAoXfPvwNGPy-52">
          <mxGeometry relative="1" as="geometry" />
        </mxCell>
        <mxCell id="M-iVwE_etAoXfPvwNGPy-51" value="Initialize variables and parameters e.g. fls, shd, cm, etc." style="rounded=1;whiteSpace=wrap;html=1;" vertex="1" parent="M-iVwE_etAoXfPvwNGPy-44">
          <mxGeometry x="17.70210526315782" y="93.2089820359281" width="134.10526315789477" height="56.40718562874251" as="geometry" />
        </mxCell>
        <mxCell id="M-iVwE_etAoXfPvwNGPy-52" value="head node and&amp;nbsp;&lt;div&gt;ro%RUNGRID == True&lt;/div&gt;" style="rhombus;whiteSpace=wrap;html=1;rounded=1;fillColor=#F19C99;" vertex="1" parent="M-iVwE_etAoXfPvwNGPy-44">
          <mxGeometry y="173.21000000000004" width="168.5" height="83.59" as="geometry" />
        </mxCell>
        <mxCell id="M-iVwE_etAoXfPvwNGPy-54" style="edgeStyle=orthogonalEdgeStyle;rounded=0;orthogonalLoop=1;jettySize=auto;html=1;entryX=0.435;entryY=0.083;entryDx=0;entryDy=0;entryPerimeter=0;" edge="1" parent="M-iVwE_etAoXfPvwNGPy-44" source="M-iVwE_etAoXfPvwNGPy-52" target="M-iVwE_etAoXfPvwNGPy-49">
          <mxGeometry relative="1" as="geometry" />
        </mxCell>
      </root>
    </mxGraphModel>
  </diagram>
</mxfile>
